<svg
 xmlns="http://www.w3.org/2000/svg"
 xmlns:xlink="http://www.w3.org/1999/xlink"
 width="25px" height="20px">
<path fill-rule="evenodd"  fill="rgb(255, 204, 0)"
 d="M0.277,0.266 C0.460,0.086 0.677,-0.004 0.928,-0.004 L15.740,-0.004 C15.991,-0.004 16.208,0.086 16.391,0.266 C16.574,0.447 16.666,0.660 16.666,0.905 L16.666,3.634 L18.980,3.634 C19.240,3.634 19.523,3.695 19.826,3.818 C20.130,3.942 20.373,4.093 20.557,4.273 L23.421,7.086 C23.546,7.209 23.654,7.351 23.746,7.512 C23.838,7.673 23.905,7.818 23.949,7.945 C23.992,8.074 24.024,8.248 24.043,8.471 C24.062,8.694 24.074,8.857 24.079,8.962 C24.084,9.066 24.084,9.246 24.079,9.502 C24.074,9.757 24.072,9.923 24.072,9.999 L24.072,14.545 C24.322,14.545 24.539,14.635 24.722,14.816 C24.906,14.995 24.997,15.208 24.997,15.455 C24.997,15.597 24.978,15.722 24.940,15.831 C24.901,15.940 24.836,16.027 24.744,16.094 C24.653,16.160 24.573,16.215 24.506,16.257 C24.438,16.300 24.325,16.328 24.166,16.343 C24.007,16.357 23.898,16.367 23.840,16.371 C23.782,16.375 23.659,16.375 23.471,16.371 C23.283,16.367 23.175,16.364 23.146,16.364 L22.220,16.364 C22.220,17.368 21.858,18.225 21.135,18.936 C20.412,19.646 19.539,20.001 18.517,20.001 C17.495,20.001 16.622,19.646 15.899,18.936 C15.176,18.225 14.814,17.368 14.814,16.364 L9.260,16.364 C9.260,17.368 8.898,18.225 8.175,18.936 C7.452,19.646 6.579,20.001 5.557,20.001 C4.535,20.001 3.662,19.646 2.939,18.936 C2.215,18.225 1.854,17.368 1.854,16.364 C1.825,16.364 1.717,16.367 1.529,16.371 C1.340,16.375 1.218,16.375 1.160,16.371 C1.102,16.367 0.993,16.357 0.834,16.343 C0.675,16.328 0.562,16.300 0.494,16.257 C0.427,16.215 0.347,16.160 0.256,16.094 C0.164,16.027 0.099,15.940 0.060,15.831 C0.021,15.722 0.002,15.597 0.002,15.455 L0.002,0.905 C0.002,0.660 0.094,0.447 0.277,0.266 ZM17.216,17.643 C17.582,18.003 18.016,18.183 18.517,18.183 C19.019,18.183 19.453,18.003 19.819,17.643 C20.186,17.283 20.369,16.856 20.369,16.364 C20.369,15.872 20.185,15.445 19.819,15.086 C19.453,14.726 19.019,14.545 18.517,14.545 C18.016,14.545 17.582,14.726 17.216,15.086 C16.849,15.445 16.666,15.872 16.666,16.364 C16.666,16.856 16.849,17.283 17.216,17.643 ZM16.666,9.090 L22.220,9.090 L22.220,8.663 C22.220,8.541 22.177,8.436 22.090,8.351 L19.270,5.580 C19.183,5.495 19.077,5.453 18.951,5.453 L16.666,5.453 L16.666,9.090 ZM4.255,17.643 C4.621,18.003 5.055,18.183 5.557,18.183 C6.058,18.183 6.493,18.003 6.859,17.643 C7.225,17.283 7.409,16.856 7.409,16.364 C7.409,15.872 7.225,15.445 6.859,15.086 C6.493,14.726 6.058,14.545 5.557,14.545 C5.055,14.545 4.621,14.726 4.255,15.086 C3.889,15.445 3.705,15.872 3.705,16.364 C3.705,16.856 3.888,17.283 4.255,17.643 Z"/>
</svg>
