<svg>
<path 
 d="M14.115,11.994 L23.550,2.550 C24.136,1.963 24.136,1.012 23.550,0.426 C22.964,-0.161 22.015,-0.161 21.428,0.426 L11.994,9.870 L2.558,0.426 C1.972,-0.161 1.023,-0.161 0.437,0.426 C-0.149,1.012 -0.149,1.963 0.437,2.550 L9.872,11.994 L0.437,21.438 C-0.149,22.024 -0.149,22.975 0.437,23.562 C0.730,23.855 1.114,24.002 1.498,24.002 C1.881,24.002 2.265,23.855 2.558,23.562 L11.994,14.118 L21.428,23.562 C21.722,23.855 22.106,24.002 22.489,24.002 C22.873,24.002 23.257,23.855 23.550,23.562 C24.136,22.975 24.136,22.024 23.550,21.438 L14.115,11.994 Z"/>
</svg>
