<svg
 xmlns="http://www.w3.org/2000/svg"
 xmlns:xlink="http://www.w3.org/1999/xlink"
 width="34px" height="36px">
<path fill-rule="evenodd"  fill="rgb(255, 255, 255)"
 d="M33.469,32.789 L25.090,23.878 C27.245,21.260 28.425,17.964 28.425,14.534 C28.425,6.520 22.048,-0.001 14.211,-0.001 C6.373,-0.001 -0.003,6.520 -0.003,14.534 C-0.003,22.548 6.373,29.069 14.211,29.069 C17.153,29.069 19.957,28.161 22.354,26.438 L30.797,35.417 C31.150,35.792 31.624,35.999 32.133,35.999 C32.614,35.999 33.071,35.811 33.418,35.470 C34.155,34.745 34.178,33.543 33.469,32.789 ZM14.211,3.791 C20.004,3.791 24.717,8.611 24.717,14.534 C24.717,20.458 20.004,25.277 14.211,25.277 C8.418,25.277 3.705,20.458 3.705,14.534 C3.705,8.611 8.418,3.791 14.211,3.791 Z"/>
</svg>
