<!-- <svg
 xmlns="http://www.w3.org/2000/svg"
 xmlns:xlink="http://www.w3.org/1999/xlink"
 width="100%" height="100%">
<path fill-rule="evenodd"  fill="rgb(0, 0, 0)"
 d="M17.594,14.242 L14.815,11.455 C14.261,10.903 13.344,10.919 12.772,11.494 L11.372,12.898 C11.283,12.848 11.192,12.797 11.095,12.743 C10.212,12.252 9.001,11.579 7.728,10.301 C6.451,9.021 5.779,7.805 5.287,6.918 C5.235,6.824 5.186,6.733 5.137,6.648 L6.076,5.707 L6.538,5.243 C7.112,4.667 7.128,3.749 6.575,3.194 L3.796,0.406 C3.244,-0.147 2.327,-0.130 1.754,0.445 L0.970,1.235 L0.992,1.257 C0.729,1.592 0.510,1.980 0.347,2.398 C0.196,2.796 0.102,3.175 0.059,3.556 C-0.308,6.606 1.082,9.394 4.855,13.177 C10.070,18.407 14.273,18.012 14.454,17.992 C14.849,17.945 15.227,17.850 15.612,17.701 C16.025,17.539 16.411,17.319 16.746,17.056 L16.763,17.072 L17.557,16.292 C18.129,15.716 18.146,14.798 17.594,14.242 Z"/>
</svg> -->
<svg xmlns="http://www.w3.org/2000/svg" width="24" height="24" viewBox="0 0 24 24"><path d="M20 22.621l-3.521-6.795c-.008.004-1.974.97-2.064 1.011-2.24 1.086-6.799-7.82-4.609-8.994l2.083-1.026-3.493-6.817-2.106 1.039c-7.202 3.755 4.233 25.982 11.6 22.615.121-.055 2.102-1.029 2.11-1.033z"/></svg>
