<svg
 xmlns="http://www.w3.org/2000/svg"
 xmlns:xlink="http://www.w3.org/1999/xlink"
 width="30px" height="27px">
<path
 d="M0.583,13.426 L8.187,16.192 L11.130,25.416 C11.318,26.007 12.060,26.226 12.552,25.833 L16.790,22.466 C17.235,22.113 17.867,22.095 18.332,22.424 L25.977,27.833 C26.503,28.206 27.249,27.925 27.381,27.305 L32.981,1.052 C33.125,0.375 32.442,-0.190 31.781,0.059 L0.574,11.792 C-0.196,12.081 -0.189,13.144 0.583,13.426 ZM10.656,14.719 L25.517,5.799 C25.784,5.640 26.058,5.991 25.829,6.199 L13.565,17.309 C13.134,17.700 12.856,18.224 12.777,18.792 L12.359,21.809 C12.304,22.212 11.723,22.252 11.609,21.862 L10.002,16.360 C9.818,15.732 10.086,15.062 10.656,14.719 Z"/>
</svg>
