<svg
 xmlns="http://www.w3.org/2000/svg"
 xmlns:xlink="http://www.w3.org/1999/xlink"
 width="100%" height="1005">
<path
 d="M27.689,14.389 C27.491,14.598 27.213,14.704 26.865,14.704 L26.831,14.703 C25.720,14.682 25.704,13.639 25.696,13.138 C25.694,12.997 25.691,12.864 25.678,12.755 C24.873,6.339 21.970,3.323 15.658,2.344 C15.568,2.329 15.461,2.322 15.347,2.313 C14.875,2.278 13.895,2.207 13.953,1.184 C13.978,0.742 14.175,-0.000 15.210,-0.000 C15.327,-0.000 15.443,0.008 15.546,0.015 C15.630,0.020 15.710,0.026 15.775,0.026 C15.815,0.026 15.839,0.024 15.852,0.022 C15.878,0.019 15.903,0.017 15.930,0.018 C22.431,0.239 28.063,6.190 27.983,12.752 C27.982,12.840 27.986,12.940 27.991,13.047 C28.010,13.483 28.034,14.024 27.689,14.389 ZM16.294,7.526 C17.266,7.502 18.335,8.014 19.222,8.922 C20.105,9.827 20.625,10.964 20.613,11.965 C20.645,12.924 20.298,13.454 19.583,13.540 C19.538,13.546 19.493,13.548 19.449,13.548 L19.449,13.548 C18.854,13.548 18.391,13.064 18.323,12.370 C18.175,10.882 17.437,10.081 16.000,9.848 C15.604,9.784 15.168,9.667 14.941,9.284 C14.786,9.022 14.771,8.704 14.896,8.338 C15.164,7.554 15.927,7.535 16.294,7.526 ZM14.422,4.692 C14.484,4.322 14.719,3.700 15.595,3.700 C15.816,3.700 16.035,3.737 16.247,3.772 C16.345,3.789 16.438,3.804 16.523,3.814 C20.802,4.333 24.255,8.081 24.220,12.169 C24.220,12.188 24.218,12.207 24.216,12.225 C24.206,12.300 24.210,12.412 24.214,12.530 C24.228,12.950 24.258,13.824 23.309,13.969 C23.214,13.984 23.123,13.991 23.038,13.991 L23.038,13.991 C22.019,13.991 21.961,13.035 21.934,12.576 C21.926,12.453 21.919,12.337 21.904,12.243 C21.271,8.399 19.977,7.037 16.133,6.171 C16.038,6.149 15.924,6.134 15.804,6.117 C15.394,6.060 14.883,5.990 14.592,5.592 C14.420,5.355 14.362,5.052 14.422,4.692 ZM14.991,20.114 C15.354,20.280 15.687,20.364 15.980,20.364 C16.475,20.364 16.877,20.118 17.208,19.612 C17.956,18.470 18.862,17.891 19.901,17.891 C20.673,17.891 21.490,18.204 22.398,18.847 C22.544,18.951 22.692,19.055 22.839,19.158 C23.548,19.657 24.281,20.172 24.970,20.731 C25.100,20.837 25.239,20.944 25.373,21.048 C26.388,21.830 27.652,22.804 26.960,24.775 C26.170,27.026 23.598,29.000 21.456,29.000 C21.456,29.000 21.456,29.000 21.456,29.000 L21.420,29.000 C21.382,28.999 21.343,28.994 21.306,28.984 C21.239,28.965 21.146,28.944 21.039,28.920 C20.725,28.849 20.294,28.752 19.884,28.573 C15.329,26.596 11.398,23.963 8.200,20.749 C4.933,17.467 2.342,13.488 0.499,8.925 C-0.139,7.347 -0.165,5.830 0.422,4.537 C1.030,3.200 2.249,2.189 3.947,1.613 C4.621,1.384 5.278,1.387 5.904,1.619 C7.381,2.166 10.888,6.989 10.974,8.592 C11.051,10.003 9.974,10.741 9.396,11.136 C8.377,11.834 8.189,12.692 8.768,14.003 C9.965,16.717 12.059,18.773 14.991,20.114 Z"/>
</svg>
