<svg
 xmlns="http://www.w3.org/2000/svg"
 xmlns:xlink="http://www.w3.org/1999/xlink"
 width="100%" height="100%">
<path
 d="M15.004,-0.000 L14.996,-0.000 C6.726,-0.000 -0.000,6.727 -0.000,15.000 C-0.000,18.281 1.057,21.322 2.856,23.792 L0.986,29.364 L6.752,27.521 C9.124,29.092 11.953,30.000 15.004,30.000 C23.274,30.000 30.000,23.270 30.000,15.000 C30.000,6.729 23.274,-0.000 15.004,-0.000 ZM23.732,21.182 C23.370,22.204 21.934,23.051 20.788,23.298 C20.004,23.465 18.981,23.599 15.534,22.170 C11.126,20.343 8.287,15.864 8.066,15.573 C7.854,15.283 6.285,13.202 6.285,11.049 C6.285,8.897 7.378,7.849 7.819,7.399 C8.181,7.029 8.779,6.861 9.352,6.861 C9.538,6.861 9.705,6.870 9.855,6.877 C10.296,6.896 10.517,6.922 10.807,7.618 C11.169,8.490 12.051,10.642 12.156,10.863 C12.262,11.085 12.369,11.385 12.219,11.675 C12.079,11.975 11.955,12.109 11.734,12.363 C11.512,12.619 11.302,12.813 11.081,13.087 C10.879,13.325 10.650,13.581 10.905,14.021 C11.160,14.452 12.041,15.890 13.339,17.045 C15.013,18.536 16.371,19.012 16.856,19.215 C17.218,19.365 17.649,19.329 17.914,19.048 C18.249,18.686 18.664,18.086 19.086,17.495 C19.386,17.071 19.764,17.019 20.162,17.169 C20.567,17.310 22.710,18.369 23.151,18.588 C23.591,18.810 23.882,18.915 23.989,19.100 C24.094,19.286 24.094,20.158 23.732,21.182 Z"/>
</svg>
