<svg xmlns="http://www.w3.org/2000/svg" style="display:none"><symbol id="box-icon"><path fill-rule="evenodd" fill="#0EC929" d="M10.812 22.999V12.277l1.021-.597L20 6.918V17.64l-9.188 5.359zm-.85-11.987L6.429 8.95l-.539-.281 9.438-5.506L19.4 5.505l-5.924 3.46-3.514 2.047zM.519 5.505L9.962-.001l3.533 2.066-9.438 5.507L.519 5.505zm2.967 6.228l1.691.878V10l3.944 2.296v10.646L0 17.621V6.975l3.486 2.028v2.73z"/></symbol><symbol id="car-icon"><path fill-rule="evenodd" fill="#FC0" d="M.277.266c.183-.18.4-.27.651-.27H15.74c.251 0 .468.09.651.27a.87.87 0 0 1 .275.639v2.729h2.314c.26 0 .543.061.846.184.304.124.547.275.731.455l2.864 2.813c.125.123.233.265.325.426.092.161.159.306.203.433.043.129.075.303.094.526.019.223.031.386.036.491.005.104.005.284 0 .54a30.8 30.8 0 0 0-.007.497v4.546c.25 0 .467.09.65.271a.86.86 0 0 1 .275.639c0 .142-.019.267-.057.376a.543.543 0 0 1-.196.263 4.413 4.413 0 0 1-.238.163c-.068.043-.181.071-.34.086l-.326.028a5.279 5.279 0 0 1-.369 0l-.325-.007h-.926c0 1.004-.362 1.861-1.085 2.572-.723.71-1.596 1.065-2.618 1.065-1.022 0-1.895-.355-2.618-1.065-.723-.711-1.085-1.568-1.085-2.572H9.26c0 1.004-.362 1.861-1.085 2.572-.723.71-1.596 1.065-2.618 1.065-1.022 0-1.895-.355-2.618-1.065-.724-.711-1.085-1.568-1.085-2.572l-.325.007a5.273 5.273 0 0 1-.369 0l-.326-.028c-.159-.015-.272-.043-.34-.086a4.413 4.413 0 0 1-.238-.163.543.543 0 0 1-.196-.263 1.112 1.112 0 0 1-.058-.376V.905A.87.87 0 0 1 .277.266zm16.939 17.377c.366.36.8.54 1.301.54.502 0 .936-.18 1.302-.54.367-.36.55-.787.55-1.279 0-.492-.184-.919-.55-1.278-.366-.36-.8-.541-1.302-.541-.501 0-.935.181-1.301.541-.367.359-.55.786-.55 1.278s.183.919.55 1.279zm-.55-8.553h5.554v-.427a.42.42 0 0 0-.13-.312L19.27 5.58a.438.438 0 0 0-.319-.127h-2.285V9.09zM4.255 17.643c.366.36.8.54 1.302.54.501 0 .936-.18 1.302-.54.366-.36.55-.787.55-1.279 0-.492-.184-.919-.55-1.278a1.796 1.796 0 0 0-1.302-.541c-.502 0-.936.181-1.302.541-.366.359-.55.786-.55 1.278s.183.919.55 1.279z"/></symbol><symbol id="left-arrow"><path fill-rule="evenodd" d="M.576 15.929l12.076 12.469a1.921 1.921 0 0 0 2.781 0 2.078 2.078 0 0 0 0-2.872L4.748 14.494 15.433 3.46a2.077 2.077 0 0 0 0-2.871 1.924 1.924 0 0 0-2.782 0L.575 13.058A2.056 2.056 0 0 0 0 14.494c0 .519.192 1.039.576 1.435z"/></symbol><symbol id="loupe-icon"><path fill-rule="evenodd" fill="#FFF" d="M33.469 32.789l-8.379-8.911a14.681 14.681 0 0 0 3.335-9.344c0-8.014-6.377-14.535-14.214-14.535C6.373-.001-.003 6.52-.003 14.534s6.376 14.535 14.214 14.535c2.942 0 5.746-.908 8.143-2.631l8.443 8.979a1.826 1.826 0 0 0 2.621.053c.737-.725.76-1.927.051-2.681zM14.211 3.791c5.793 0 10.506 4.82 10.506 10.743 0 5.924-4.713 10.743-10.506 10.743S3.705 20.458 3.705 14.534c0-5.923 4.713-10.743 10.506-10.743z"/></symbol><symbol id="phone-icon"><path fill-rule="evenodd" d="M17.594 14.242l-2.779-2.787c-.554-.552-1.471-.536-2.043.039l-1.4 1.404-.277-.155c-.883-.491-2.094-1.164-3.367-2.442-1.277-1.28-1.949-2.496-2.441-3.383-.052-.094-.101-.185-.15-.27l.939-.941.462-.464c.574-.576.59-1.494.037-2.049L3.796.406C3.244-.147 2.327-.13 1.754.445l-.784.79.022.022a4.5 4.5 0 0 0-.645 1.141 4.729 4.729 0 0 0-.288 1.158c-.367 3.05 1.023 5.838 4.796 9.621 5.215 5.23 9.418 4.835 9.599 4.815a4.707 4.707 0 0 0 1.158-.291 4.513 4.513 0 0 0 1.134-.645l.017.016.794-.78c.572-.576.589-1.494.037-2.05z"/></symbol><symbol id="right-arrow"><path fill-rule="evenodd" d="M15.424 15.929L3.348 28.398a1.921 1.921 0 0 1-2.781 0 2.078 2.078 0 0 1 0-2.872l10.685-11.032L.567 3.46a2.077 2.077 0 0 1 0-2.871 1.923 1.923 0 0 1 2.781 0l12.077 12.469c.384.396.575.916.575 1.436 0 .519-.192 1.039-.576 1.435z"/></symbol><symbol id="telegram-icon"><path d="M.583 13.426l7.604 2.766 2.943 9.224c.188.591.93.81 1.422.417l4.238-3.367a1.29 1.29 0 0 1 1.542-.042l7.645 5.409c.526.373 1.272.092 1.404-.528l5.6-26.253c.144-.677-.539-1.242-1.2-.993L.574 11.792a.866.866 0 0 0 .009 1.634zm10.073 1.293l14.861-8.92c.267-.159.541.192.312.4l-12.264 11.11a2.46 2.46 0 0 0-.788 1.483l-.418 3.017c-.055.403-.636.443-.75.053l-1.607-5.502a1.442 1.442 0 0 1 .654-1.641z"/></symbol><symbol id="temp-icon-left-arrow" viewBox="0 0 31.494 31.494"><path d="M10.273 5.01a1.117 1.117 0 0 1 1.587 1.57l-8.047 8.047h26.554c.62 0 1.127.492 1.127 1.11 0 .62-.508 1.128-1.127 1.128H3.813l8.047 8.032c.43.444.43 1.16 0 1.587a1.112 1.112 0 0 1-1.587 0L.32 16.532a1.12 1.12 0 0 1 0-1.57l9.953-9.953z" fill="#1E201D"/></symbol><symbol id="temp-icon-right-arrow" viewBox="0 0 31.49 31.49"><path d="M21.205 5.007a1.117 1.117 0 0 0-1.587 1.57l8.047 8.048H1.11c-.618 0-1.11.493-1.11 1.112 0 .62.492 1.127 1.11 1.127h26.555l-8.047 8.032c-.43.444-.43 1.16 0 1.587.444.444 1.16.444 1.587 0l9.952-9.952a1.092 1.092 0 0 0 0-1.57l-9.952-9.95z" fill="#1E201D"/></symbol><symbol id="viber-icon"><path d="M27.689 14.389c-.198.209-.476.315-.824.315l-.034-.001c-1.111-.021-1.127-1.064-1.135-1.565a3.911 3.911 0 0 0-.018-.383c-.805-6.416-3.708-9.432-10.02-10.411-.09-.015-.197-.022-.311-.031-.472-.035-1.452-.106-1.394-1.129C13.978.742 14.175 0 15.21 0c.117 0 .233.008.336.015.084.005.164.011.229.011.04 0 .064-.002.077-.004a.503.503 0 0 1 .078-.004c6.501.221 12.133 6.172 12.053 12.734-.001.088.003.188.008.295.019.436.043.977-.302 1.342zM16.294 7.526c.972-.024 2.041.488 2.928 1.396.883.905 1.403 2.042 1.391 3.043.032.959-.315 1.489-1.03 1.575-.045.006-.09.008-.134.008-.595 0-1.058-.484-1.126-1.178-.148-1.488-.886-2.289-2.323-2.522-.396-.064-.832-.181-1.059-.564-.155-.262-.17-.58-.045-.946.268-.784 1.031-.803 1.398-.812zm-1.872-2.834c.062-.37.297-.992 1.173-.992.221 0 .44.037.652.072.098.017.191.032.276.042 4.279.519 7.732 4.267 7.697 8.355a.509.509 0 0 1-.004.056c-.01.075-.006.187-.002.305.014.42.044 1.294-.905 1.439a1.743 1.743 0 0 1-.271.022c-1.019 0-1.077-.956-1.104-1.415-.008-.123-.015-.239-.03-.333-.633-3.844-1.927-5.206-5.771-6.072-.095-.022-.209-.037-.329-.054-.41-.057-.921-.127-1.212-.525-.172-.237-.23-.54-.17-.9zm.569 15.422c.363.166.696.25.989.25.495 0 .897-.246 1.228-.752.748-1.142 1.654-1.721 2.693-1.721.772 0 1.589.313 2.497.956l.441.311c.709.499 1.442 1.014 2.131 1.573.13.106.269.213.403.317 1.015.782 2.279 1.756 1.587 3.727C26.17 27.026 23.598 29 21.456 29h-.036a.49.49 0 0 1-.114-.016 5.565 5.565 0 0 0-.267-.064c-.314-.071-.745-.168-1.155-.347-4.555-1.977-8.486-4.61-11.684-7.824C4.933 17.467 2.342 13.488.499 8.925-.139 7.347-.165 5.83.422 4.537 1.03 3.2 2.249 2.189 3.947 1.613c.674-.229 1.331-.226 1.957.006 1.477.547 4.984 5.37 5.07 6.973.077 1.411-1 2.149-1.578 2.544-1.019.698-1.207 1.556-.628 2.867 1.197 2.714 3.291 4.77 6.223 6.111z"/></symbol><symbol id="whatsapp-icon"><path d="M15.004 0h-.008C6.726 0 0 6.727 0 15c0 3.281 1.057 6.322 2.856 8.792l-1.87 5.572 5.766-1.843A14.872 14.872 0 0 0 15.004 30C23.274 30 30 23.27 30 15c0-8.271-6.726-15-14.996-15zm8.728 21.182c-.362 1.022-1.798 1.869-2.944 2.116-.784.167-1.807.301-5.254-1.128-4.408-1.827-7.247-6.306-7.468-6.597-.212-.29-1.781-2.371-1.781-4.524 0-2.152 1.093-3.2 1.534-3.65.362-.37.96-.538 1.533-.538.186 0 .353.009.503.016.441.019.662.045.952.741.362.872 1.244 3.024 1.349 3.245.106.222.213.522.063.812-.14.3-.264.434-.485.688-.222.256-.432.45-.653.724-.202.238-.431.494-.176.934.255.431 1.136 1.869 2.434 3.024 1.674 1.491 3.032 1.967 3.517 2.17.362.15.793.114 1.058-.167.335-.362.75-.962 1.172-1.553.3-.424.678-.476 1.076-.326.405.141 2.548 1.2 2.989 1.419.44.222.731.327.838.512.105.186.105 1.058-.257 2.082z"/></symbol></svg>